<svg id="icons" xmlns="http://www.w3.org/2000/svg" viewBox="0 0 340 340"><polygon points="93.803 146.6 26.223 203.758 26.223 312.368 93.803 312.368 161.382 312.368 161.382 203.758 93.803 146.6" style="fill:#f2f2f2"/><polygon points="71.987 312.368 93.803 312.368 115.618 312.368 115.618 232.319 71.987 232.319 71.987 312.368" style="fill:#6f6f7f"/><polygon points="26.223 203.758 26.223 223.673 93.803 167.213 161.382 223.673 161.382 203.758 93.803 146.6 26.223 203.758" style="fill:#d3d3d3"/><polygon points="93.803 123.021 10 193.401 10 217.479 93.803 146.6 177.605 217.479 177.605 193.401 93.803 123.021" style="fill:#ff8585"/><path d="M309.609,224.47a6.228,6.228,0,0,0-11.011-.355c-.052.1-.105.191-.159.286a8.243,8.243,0,0,1-13.766.745c-20.019-26.587-48.586-30.882-68.508-29.98a10.772,10.772,0,0,0-8.2,17.07c6.347,8.861,8.612,18.729,9.32,26.192a8.8,8.8,0,0,1-9.537,9.5c-.509-.039-1.021-.068-1.533-.088a10.745,10.745,0,0,0-9.561,16.23q1.354,2.268,2.417,4.428c8.625,17.468-6.926,36.9-26.045,33.159-.873-.171-1.738-.312-2.6-.445l3.275,11.155,153.063-6.411.946-15.515C323.835,258.625,315.808,237.1,309.609,224.47Z" style="fill:#b6dffc"/><path d="M135.292,304.278a35.106,35.106,0,0,1-23.24-.715c-14.876-5.576-29.129-2.868-38.615.478a35.3,35.3,0,0,1-22.96.087C26.588,296.1,10,309.418,10,309.418v20.391H330a319.861,319.861,0,0,0-2.975-44.607c-5.221,2.665-9.877-1.629-11.879-3.943a13.408,13.408,0,0,1-1.476-2.114c-2.043-3.569-11.165-18.14-25.657-21.484C271.465,253.842,272.1,268.8,272.1,268.8s-.637,22.594-12.093,32.813-22.594-2.7-22.594-2.7c-14-17.943-22.275-5.924-22.275-5.924s-7,11.138-19.326,11.775a65.522,65.522,0,0,1-22.791-3.1A75.543,75.543,0,0,0,135.292,304.278Z" style="fill:#7babdb"/><ellipse cx="286.159" cy="184.352" rx="9.65" ry="11.124" transform="translate(-54.234 186.622) rotate(-33.173)" style="fill:#7babdb"/><ellipse cx="236.911" cy="264.419" rx="7.812" ry="9.005" transform="translate(-106.07 172.724) rotate(-33.173)" style="fill:#7babdb"/><path d="M265.205,10.182c-18.821,17.87-62.221,9.755-62.221,9.755V83.253a59.541,59.541,0,0,0,4.027,21.916c15.634,39.509,58.194,47.426,58.194,47.426s42.56-7.917,58.193-47.426a59.522,59.522,0,0,0,4.028-21.916V19.937S284.026,28.052,265.205,10.182Z" style="fill:#ffdc6c"/><path d="M265.205,10.182a34.618,34.618,0,0,1-10.378,6.61L202.984,68.634V83.253a61.127,61.127,0,0,0,2.283,16.759l80.156-80.156C277.747,18.183,270.5,15.212,265.205,10.182Z" style="fill:#ffedd2"/><path d="M212.541,116.253a72,72,0,0,0,7.649,10.307L321.431,25.667V20.8c-3.349.4-7.873.806-12.988.933Z" style="fill:#ffedd2"/><path d="M323.4,105.169a59.522,59.522,0,0,0,4.028-21.916V19.937s-43.4,8.115-62.221-9.755V152.6S307.765,144.678,323.4,105.169Z" style="fill:#fca742"/><path d="M202.984,53.874,235.561,21.3c-2.568.247-5.116.386-7.59.444L202.984,46.729Z" style="fill:#ffedd2"/><path d="M277.884,171.693a12.933,12.933,0,0,0-5.7,9.268,15.959,15.959,0,0,0,2.554,10.86,15.5,15.5,0,0,0,12.77,7.226,12.585,12.585,0,0,0,6.931-2.035c6.3-4.118,7.713-13.148,3.15-20.128S284.183,167.574,277.884,171.693Zm12.174,18.622c-2.608,1.705-6.478.417-8.628-2.871a7.969,7.969,0,0,1-1.323-5.4,5.056,5.056,0,0,1,2.154-3.653,4.708,4.708,0,0,1,2.6-.753,7.52,7.52,0,0,1,6.023,3.625C293.038,184.549,292.665,188.611,290.058,190.315Z" style="fill:#494456"/><path d="M8.316,221.108a4,4,0,0,0,4.267-.574l9.64-8.154v75.509a4,4,0,0,0,8,0V205.614L93.8,151.839l63.579,53.775v79.821a4,4,0,0,0,8,0V212.38l9.64,8.154a4,4,0,0,0,6.583-3.055V193.4a4,4,0,0,0-1.428-3.063l-83.8-70.38a4,4,0,0,0-5.144,0l-83.8,70.38A4,4,0,0,0,6,193.4v24.078A4,4,0,0,0,8.316,221.108ZM14,195.265l79.8-67.02,79.8,67.02v13.592l-9.639-8.152h0L96.386,143.546a4,4,0,0,0-5.166,0L23.64,200.7h0L14,208.857Z" style="fill:#494456"/><path d="M115.618,293.07a4,4,0,0,0,4-4V232.319a4,4,0,0,0-4-4H71.987a4,4,0,0,0-4,4V289.07a4,4,0,0,0,8,0V236.319h35.631V289.07A4,4,0,0,0,115.618,293.07Z" style="fill:#494456"/><path d="M334,329.809c0-53.5-11.311-87.772-20.8-107.1a10.253,10.253,0,0,0-9.018-5.736,10.073,10.073,0,0,0-9.1,5.228l-.125.227a4.042,4.042,0,0,1-3.309,2.064,4.318,4.318,0,0,1-3.784-1.75c-20.959-27.835-50.657-32.525-71.884-31.57a14.511,14.511,0,0,0-12.566,8.272,14.83,14.83,0,0,0,1.293,15.124c5.992,8.364,7.978,17.8,8.589,24.24a4.545,4.545,0,0,1-1.308,3.669,4.974,4.974,0,0,1-3.945,1.465c-.557-.042-1.115-.074-1.677-.1a14.47,14.47,0,0,0-13.144,7.18,14.738,14.738,0,0,0-.009,15.1c.83,1.389,1.592,2.784,2.265,4.147a18.713,18.713,0,0,1-1.966,20.019,19.864,19.864,0,0,1-19.724,7.444,79.8,79.8,0,0,0-39.741,2.742,31.3,31.3,0,0,1-20.595-.658c-16.056-6.018-31.348-3.075-41.349.451a31.4,31.4,0,0,1-20.356.068C26.085,291.713,8.243,305.7,7.5,306.3a4,4,0,0,0,5.008,6.238c.149-.119,15.133-11.861,36.7-4.617a39.441,39.441,0,0,0,25.565-.106c8.749-3.086,22.076-5.678,35.88-.5a39.316,39.316,0,0,0,25.884.772,71.8,71.8,0,0,1,35.723-2.5,27.806,27.806,0,0,0,27.616-10.435,26.56,26.56,0,0,0,2.784-28.419c-.767-1.553-1.631-3.137-2.57-4.709a6.659,6.659,0,0,1,.019-6.911,6.549,6.549,0,0,1,5.948-3.272q.7.029,1.39.08a12.968,12.968,0,0,0,10.261-3.839,12.592,12.592,0,0,0,3.561-10.028c-.7-7.422-3.019-18.328-10.05-28.143a6.748,6.748,0,0,1-.6-6.972,6.618,6.618,0,0,1,5.731-3.773c19.308-.878,46.27,3.341,65.132,28.39a12.338,12.338,0,0,0,10.69,4.921,12.065,12.065,0,0,0,9.746-6.092l.193-.347a2.022,2.022,0,0,1,1.9-1.065,2.275,2.275,0,0,1,2.013,1.264C313.481,241.434,326,275.105,326,329.809a4,4,0,0,0,8,0Z" style="fill:#494456"/><path d="M234.677,276.618a11.962,11.962,0,0,0,3.281.462,11.071,11.071,0,0,0,6.069-1.775,11.371,11.371,0,0,0,4.955-8.038,13.677,13.677,0,0,0-2.184-9.311c-3.924-6-11.551-7.985-17-4.423s-6.693,11.347-2.77,17.349A13.683,13.683,0,0,0,234.677,276.618Zm-.5-16.389a3.021,3.021,0,0,1,1.669-.474,5.383,5.383,0,0,1,4.261,2.578,5.778,5.778,0,0,1,.954,3.853,3.117,3.117,0,0,1-4.189,2.738,5.775,5.775,0,0,1-3.146-2.419C232.237,264.234,232.443,261.36,234.172,260.229Z" style="fill:#494456"/><path d="M327.118,106.64a63.277,63.277,0,0,0,4.307-23.387V19.937a4,4,0,0,0-4.733-3.932c-.415.077-41.624,7.52-58.733-8.723-.074-.071-.159-.12-.237-.184a3.821,3.821,0,0,0-.323-.25c-.111-.073-.226-.131-.342-.192s-.23-.124-.351-.173-.246-.083-.371-.12-.243-.075-.368-.1a3.778,3.778,0,0,0-.383-.047c-.126-.012-.252-.026-.38-.026s-.253.014-.38.026a3.793,3.793,0,0,0-.382.047c-.126.024-.247.063-.369.1s-.249.071-.37.12a3.857,3.857,0,0,0-.353.175c-.115.06-.229.117-.339.189a4.072,4.072,0,0,0-.326.253c-.077.063-.161.112-.234.182-17.11,16.243-58.32,8.8-58.734,8.723a4,4,0,0,0-4.733,3.932V83.253a63.265,63.265,0,0,0,4.308,23.387c16.26,41.094,59.355,49.548,61.181,49.888h.011a3.957,3.957,0,0,0,.716.067h.009a3.968,3.968,0,0,0,.717-.067h.01C267.763,156.188,310.858,147.734,327.118,106.64ZM265.2,148.5c-5.543-1.26-40.916-10.555-54.469-44.807a55.325,55.325,0,0,1-3.747-20.444V24.6c11.539,1.518,41.151,3.823,58.221-9.19,17.071,13.012,46.682,10.709,58.22,9.19V83.253a55.317,55.317,0,0,1-3.746,20.444C306.165,137.851,270.727,147.235,265.2,148.5Z" style="fill:#494456"/><circle cx="196.327" cy="170.25" r="4" style="fill:#494456"/></svg>